<svg width="600" height="183" id="a" xmlns="http://www.w3.org/2000/svg" viewBox="0 0 600 183.6">
						<g>
							<path fill="white" d="M91.9,0C41.2,0,0,41.1,0,91.8s41.1,91.8,91.9,91.8,91.9-41.1,91.9-91.8C183.7,41.1,142.6,0,91.9,0m0,15.1c42.3,0,76.8,34.4,76.8,76.7s-34.4,76.7-76.8,76.7S15.1,134.1,15.1,91.8c0-42.3,34.4-76.7,76.8-76.7"></path>
							<path fill="white" d="M37.6,61h52.2v15.8H55.7v11.1h30.8v15h-30.8v23.3h-18.1V61Zm85.9,31.3c6.1,0,9.7-3,9.7-7.7v-.2c0-5.2-3.8-7.8-9.8-7.8h-11.9v15.7h12Zm-30-31.3h30.8c10,0,16.9,2.6,21.2,7,3.8,3.8,5.8,8.7,5.8,15.2v.2c0,10.1-5.3,16.7-13.4,20.1l15.6,22.7h-20.8l-13.2-19.8h-8v19.7h-18.1V61h.1Z"></path>
						</g>
						<path fill="white" d="M219.6,44.3h28.3v2.8h-25.3v16.5h22.7v2.8h-22.7v18h-3V44.3Zm34.1,23.4v-23.5h3v23.2c0,9.5,5.1,14.9,13.6,14.9s13.4-4.9,13.4-14.6v-23.5h3v23.2c0,11.5-6.7,17.7-16.5,17.7-9.6-.1-16.5-6.1-16.5-17.4m41.4-23.4h2.8l27.7,34.9V44.3h2.9v40.1h-2.2l-28.3-35.7v35.7h-2.9V44.3h0Zm55.9,37.3c11.2,0,18.2-7.6,18.2-17.2v-.1c0-9.5-7.1-17.3-18.2-17.3h-10.4v34.6h10.4Zm-13.4-37.3h13.4c12.6,0,21.3,8.7,21.3,20v.1c0,11.3-8.7,20.1-21.3,20.1h-13.4V44.3Zm58.6,20.8c6.7,0,11.7-3.4,11.7-9.2v-.1c0-5.4-4.2-8.8-11.5-8.8h-13.7v18.1h13.5Zm-16.6-20.8h16.9c4.9,0,8.9,1.5,11.3,4,1.9,1.9,3,4.6,3,7.5v.1c0,6.7-5,10.6-11.8,11.5l13.3,17.1h-3.8l-12.8-16.6h-13.1v16.5h-3V44.3h0Zm65.9,26.2l-10.6-23.2-10.6,23.2h21.2Zm-12-26.5h2.9l18.7,40.4h-3.3l-5.1-11.2h-23.7l-5.1,11.2h-3.1l18.7-40.4h0Zm27.7,40.4h3V44.3h-3v40.1Zm9.8-5.8l2-2.2c4.4,4.1,8.5,6,14.4,6s10.2-3.4,10.2-8v-.1c0-4.2-2.2-6.7-11.4-8.5-9.6-1.9-13.5-5.2-13.5-11.3v-.1c0-6,5.5-10.6,12.9-10.6,5.9,0,9.7,1.6,13.8,4.9l-1.9,2.4c-3.8-3.3-7.6-4.5-12-4.5-5.9,0-9.8,3.4-9.8,7.6v.1c0,4.2,2.2,6.8,11.7,8.8,9.3,1.9,13.2,5.2,13.2,11.1v.1c0,6.5-5.6,11-13.3,11-6.5-.3-11.4-2.4-16.3-6.7m36.9,5.8h3V44.3h-3v40.1Zm12.4-40.1h2.8l27.7,34.9V44.3h2.9v40.1h-2.2l-28.3-35.7v35.7h-2.9V44.3Zm40.7,20.1v-.1c0-10.8,7.9-20.8,19.9-20.8,6.5,0,10.7,1.9,14.7,5.3l-2,2.2c-3.2-2.8-6.8-4.8-12.9-4.8-9.8,0-16.6,8.3-16.6,18v.1c0,10.4,6.5,18.1,17.2,18.1,5.1,0,9.9-2.1,12.8-4.6v-11.5h-13.4v-2.8h16.3v15.5c-3.6,3.2-9.2,6-15.8,6-12.6,.1-20.2-9.3-20.2-20.6"></path>
						<path fill="white" d="M239,116.3c4.8,0,7.6-2.6,7.6-6.4v-.1c0-4.2-3-6.4-7.8-6.4h-9.8v12.9h10Zm-20-21.8h20.6c5.7,0,10.2,1.6,13.1,4.6,2.5,2.5,3.9,6,3.9,10.3v.1c0,7.3-3.9,11.8-9.6,13.9l11,16.1h-11.6l-9.7-14.4h-7.8v14.4h-9.9v-45h0Zm43.3,0h34v8.8h-24.1v9.1h21.2v8.8h-21.2v9.4h24.4v8.8h-34.3v-44.9Zm37.9,22.6v-.1c0-12.8,10-23.3,23.6-23.3,8.1,0,13,2.2,17.7,6.2l-6.2,7.5c-3.5-2.9-6.6-4.6-11.8-4.6-7.2,0-12.9,6.4-12.9,14v.1c0,8.2,5.7,14.3,13.6,14.3,3.6,0,6.8-.9,9.3-2.7v-6.4h-10v-8.5h19.6v19.5c-4.6,3.9-11,7.1-19.2,7.1-14.1,0-23.7-9.8-23.7-23.1m48.4,3.1v-25.7h9.9v25.5c0,7.3,3.7,11.1,9.7,11.1s9.7-3.7,9.7-10.8v-25.8h9.9v25.4c0,13.6-7.7,20.3-19.8,20.3s-19.4-6.8-19.4-20m46.1-25.7h9.9v36h22.5v9h-32.4v-45Zm62.5,26.1l-6-14.6-6,14.6h12Zm-10.4-26.4h9.1l19.3,45.3h-10.4l-4.1-10.1h-19l-4.1,10.1h-10.1l19.3-45.3Zm36.8,9.4h-13.7v-9.1h37.3v9.1h-13.7v35.9h-9.9v-35.9Zm61.6,13.5v-.1c0-7.7-5.7-14.1-13.6-14.1s-13.5,6.3-13.5,14v.1c0,7.7,5.7,14.1,13.6,14.1s13.5-6.3,13.5-14m-37.6,0v-.1c0-12.8,10.1-23.3,24-23.3s23.9,10.3,23.9,23.1v.1c0,12.8-10.1,23.3-24,23.3-13.9,0-23.9-10.3-23.9-23.1m73.4-.8c4.8,0,7.6-2.6,7.6-6.4v-.1c0-4.2-3-6.4-7.8-6.4h-9.8v12.9h10Zm-19.9-21.8h20.6c5.7,0,10.2,1.6,13.1,4.6,2.5,2.5,3.9,6,3.9,10.3v.1c0,7.3-3.9,11.8-9.7,13.9l11,16.1h-11.6l-9.7-14.4h-7.8v14.4h-9.9l.1-45h0Z"></path>
					</svg>