<svg width="100" height="100" viewBox="0 0 100 100" fill="none" xmlns="http://www.w3.org/2000/svg">
<path d="M50 12.5C27.5 12.5 9.375 30.625 9.375 53.125C9.375 75.625 27.5 93.75 50 93.75C72.5 93.75 90.625 75.625 90.625 53.125C90.625 30.625 72.5 12.5 50 12.5ZM50 87.8125C30.9375 87.8125 15.3125 72.1875 15.3125 53.125C15.3125 34.0625 30.9375 18.4375 50 18.4375C69.0625 18.4375 84.6875 34.0625 84.6875 53.125C84.6875 72.1875 69.0625 87.8125 50 87.8125ZM11.5625 24.0625L24.0625 11.5625C25.3125 10.3125 25.3125 8.4375 24.0625 7.1875C22.8125 5.9375 20.9375 5.9375 19.6875 7.1875L7.1875 19.6875C5.9375 20.9375 5.9375 22.8125 7.1875 24.0625C7.8125 24.6875 8.4375 25 9.375 25C10.3125 25 10.9375 24.6875 11.5625 24.0625ZM92.8125 19.6875L80.3125 7.1875C79.0625 5.9375 77.1875 5.9375 75.9375 7.1875C74.6875 8.4375 74.6875 10.3125 75.9375 11.5625L88.4375 24.0625C89.0625 24.6875 89.6875 25 90.625 25C91.5625 25 92.1875 24.6875 92.8125 24.0625C94.0625 22.8125 94.0625 20.9375 92.8125 19.6875Z" fill="#F63333"/>
<path d="M74.6875 56.25H74.375C72.8125 55.9375 71.5625 54.6875 71.5625 53.125C71.5625 51.5625 72.8125 50.3125 74.375 50H78.125C76.5625 36.875 66.25 26.5625 53.125 25V28.75C52.8125 30.3125 51.5625 31.5625 50 31.5625C48.4375 31.5625 47.1875 30.3125 46.875 28.75V25C33.75 26.5625 23.4375 36.875 21.875 50H25.625C27.1875 50.3125 28.4375 51.5625 28.4375 53.125C28.4375 54.6875 27.1875 55.9375 25.625 56.25H21.875C23.4375 69.375 33.75 79.6875 46.875 81.25V77.5C47.1875 75.9375 48.4375 74.6875 50 74.6875C51.5625 74.6875 52.8125 75.9375 53.125 77.5V81.25C66.25 79.6875 76.5625 69.375 78.125 56.25H74.6875C75 56.25 75 56.25 74.6875 56.25ZM62.5 56.25H50C48.4375 56.25 46.875 54.6875 46.875 53.125V37.5C46.875 35.9375 48.4375 34.375 50 34.375C51.5625 34.375 53.125 35.9375 53.125 37.5V50H62.5C64.0625 50 65.625 51.5625 65.625 53.125C65.625 54.6875 64.0625 56.25 62.5 56.25Z" fill="#F63333"/>
</svg>
