<svg width="100" height="80" viewBox="0 0 100 80" fill="none" xmlns="http://www.w3.org/2000/svg">
<path d="M18.0033 63.7892C18.2598 63.7895 18.5139 63.7392 18.7509 63.641C18.9879 63.5428 19.2032 63.3988 19.3843 63.2171L31.7236 50.8779C32.0899 50.5116 32.2957 50.0148 32.2957 49.4968C32.2957 48.9788 32.0899 48.482 31.7236 48.1157L28.5683 44.9603L45.2826 28.246L48.4379 31.4011C48.6192 31.5825 48.8346 31.7264 49.0715 31.8245C49.3085 31.9227 49.5625 31.9732 49.819 31.9732C50.0755 31.9732 50.3295 31.9227 50.5665 31.8245C50.8035 31.7264 51.0188 31.5825 51.2002 31.4011L59.6658 22.9353L59.6681 22.9331L59.6703 22.9308L63.539 19.0618C63.9052 18.6956 64.111 18.1988 64.111 17.6809C64.111 17.1629 63.9052 16.6662 63.539 16.2999L48.2967 1.05715C47.9304 0.690877 47.4336 0.485107 46.9156 0.485107C46.3976 0.485107 45.9008 0.690877 45.5345 1.05715L33.1953 13.3964C32.829 13.7627 32.6232 14.2595 32.6232 14.7775C32.6232 15.2955 32.829 15.7922 33.1953 16.1585L36.3506 19.3138L19.6363 36.0282L16.481 32.8728C16.2997 32.6914 16.0843 32.5475 15.8474 32.4493C15.6104 32.3512 15.3564 32.3006 15.0999 32.3006C14.8434 32.3006 14.5894 32.3512 14.3524 32.4493C14.1154 32.5475 13.9001 32.6914 13.7187 32.8728L9.84841 36.7433L1.37966 45.212C1.01339 45.5783 0.807617 46.0751 0.807617 46.5931C0.807617 47.1111 1.01339 47.6079 1.37966 47.9741L16.6215 63.2167C16.8027 63.3985 17.018 63.5427 17.2552 63.641C17.4923 63.7392 17.7466 63.7896 18.0033 63.7892ZM11.2287 40.8872L23.7092 53.3677L21.8754 55.2023L9.39489 42.7218L11.2287 40.8872ZM37.3386 14.7775L38.4476 13.6685L50.9281 26.1489L49.8191 27.2577L37.3386 14.7775ZM43.0445 9.0716L55.525 21.5521L53.6904 23.3868L41.2099 10.9064L43.0445 9.0716ZM59.3959 17.6808L58.2871 18.7896L45.8066 6.3091L46.9156 5.20012L59.3959 17.6808ZM39.1129 22.0753L42.5199 25.4835L25.8054 42.1978L22.3982 38.7904L39.1129 22.0753ZM18.2543 40.1704H18.2552L24.4228 46.338L24.4238 46.339L27.5783 49.4935L26.4693 50.6025L13.9888 38.122L15.0978 37.0132L18.2543 40.1704ZM6.63181 45.4841L19.1123 57.9646L18.0033 59.0736L5.52283 46.5931L6.63181 45.4841ZM83.3793 16.7835C83.013 16.4172 82.5162 16.2115 81.9982 16.2115C81.4802 16.2115 80.9834 16.4172 80.6172 16.7835L68.2779 29.1228C67.9116 29.4891 67.7059 29.9858 67.7059 30.5038C67.7059 31.0218 67.9116 31.5186 68.2779 31.8849L71.4332 35.0404L54.7189 51.7546L51.5629 48.5991C51.3815 48.4178 51.1662 48.2739 50.9292 48.1757C50.6922 48.0775 50.4382 48.027 50.1817 48.027C49.9252 48.027 49.6712 48.0775 49.4342 48.1757C49.1972 48.2739 48.9819 48.4178 48.8006 48.5991L40.3349 57.065L40.3326 57.0671L40.3304 57.0695L36.4617 60.9384C36.0955 61.3047 35.8897 61.8014 35.8897 62.3194C35.8897 62.8373 36.0955 63.334 36.4617 63.7003L51.7041 78.9429C52.0704 79.3092 52.5671 79.5149 53.0851 79.5149C53.6031 79.5149 54.0999 79.3092 54.4662 78.9429L66.8054 66.6036C67.1717 66.2374 67.3775 65.7406 67.3775 65.2226C67.3775 64.7046 67.1717 64.2078 66.8054 63.8415L63.6502 60.6863L80.3644 43.9718L83.5197 47.1273C83.7011 47.3087 83.9164 47.4525 84.1534 47.5507C84.3903 47.6489 84.6443 47.6994 84.9008 47.6994C85.1574 47.6994 85.4114 47.6489 85.6483 47.5507C85.8853 47.4525 86.1006 47.3087 86.282 47.1273L90.1523 43.2568L98.6197 34.7894C98.986 34.4231 99.1917 33.9263 99.1917 33.4083C99.1917 32.8903 98.986 32.3935 98.6197 32.0273L83.3793 16.7835ZM94.4787 33.4072L93.3697 34.5161L80.8892 22.0357L81.9982 20.9267L94.4787 33.4072ZM88.7728 39.113L76.2924 26.6325L78.1271 24.798L90.6076 37.2784L88.7728 39.113ZM62.6621 65.2228L61.5531 66.3318L49.0726 53.8513L50.1816 52.7425L62.6621 65.2228ZM56.9562 70.9286L44.4758 58.4482L46.3103 56.6134L58.7908 69.0939L56.9562 70.9286ZM40.6058 62.3195L41.7146 61.2107L54.1951 73.6911L53.0861 74.8001L40.6058 62.3195ZM60.8888 57.9249L57.4808 54.5167L74.1953 37.8025L77.6025 41.2099L60.8888 57.9249ZM81.7482 39.8306H81.7472L75.5769 33.6603L72.4224 30.5058L73.5314 29.3968L86.0119 41.8773L84.9029 42.9861L81.7482 39.8306Z" fill="#F63333"/>
</svg>
