<svg width="100" height="100" viewBox="0 0 100 100" fill="none" xmlns="http://www.w3.org/2000/svg">
<g clip-path="url(#clip0_412_809)">
<path d="M53.1246 0.000101147C50.6382 0.000101147 48.2537 0.987821 46.4955 2.74598C44.7373 4.50413 43.7496 6.8887 43.7496 9.3751C43.7496 11.8615 44.7373 14.2461 46.4955 16.0042C48.2537 17.7624 50.6382 18.7501 53.1246 18.7501C55.611 18.7501 57.9956 17.7624 59.7538 16.0042C61.5119 14.2461 62.4996 11.8615 62.4996 9.3751C62.4996 6.8887 61.5119 4.50413 59.7538 2.74598C57.9956 0.987821 55.611 0.000101147 53.1246 0.000101147ZM76.434 0.000101147C75.6665 0.0194705 74.9157 0.227798 74.248 0.606634C73.5802 0.98547 73.0162 1.52312 72.6059 2.17198L60.0746 21.8751H41.9903C41.6734 21.8789 41.368 21.9939 41.1275 22.2002C40.887 22.4064 40.7267 22.6907 40.6746 23.0032C40.5559 23.1001 40.409 23.1407 40.2996 23.247L26.3184 37.2376C25.4396 38.1166 24.9459 39.3087 24.9459 40.5517C24.9459 41.7946 25.4396 42.9867 26.3184 43.8657L40.4528 58.0032C40.5059 58.0532 40.6246 58.0689 40.6246 58.1189V63.4376L36.4934 78.6564L20.484 91.672C19.7335 92.283 19.1903 93.1113 18.929 94.0432C18.6678 94.9751 18.7011 95.965 19.0246 96.8771C19.348 97.7893 19.9457 98.5791 20.7357 99.1382C21.5257 99.6973 22.4693 99.9984 23.4371 100C24.4778 100 25.5215 99.6563 26.3903 98.9501L43.5778 84.9845C44.3401 84.3655 44.8889 83.5227 45.1465 82.5751L48.0528 71.8751H60.6871L68.7496 79.6032V95.3126C68.7496 96.5558 69.2435 97.7481 70.1226 98.6272C71.0016 99.5062 72.1939 100 73.4371 100C74.6803 100 75.8726 99.5062 76.7517 98.6272C77.6308 97.7481 78.1246 96.5558 78.1246 95.3126V77.6064C78.1246 76.3251 77.6028 75.1064 76.6778 74.2189L65.6246 63.6282V30.1501C65.6246 29.847 66.3309 29.5032 66.6028 29.0782L80.5184 7.20323C80.9755 6.48527 81.2285 5.65642 81.2502 4.80558C81.272 3.95475 81.0617 3.11405 80.6418 2.37368C80.222 1.63331 79.6086 1.02121 78.8673 0.603049C78.126 0.18489 77.2848 -0.0235467 76.434 0.000101147ZM40.6246 36.1876V44.9157L36.2621 40.5532L40.6246 36.1876Z" fill="#F63333"/>
</g>
<defs>
<clipPath id="clip0_412_809">
<rect width="100" height="100" fill="white"/>
</clipPath>
</defs>
</svg>
