<svg width="100" height="100" viewBox="0 0 100 100" fill="none" xmlns="http://www.w3.org/2000/svg">
<path d="M62.6953 18.8809C62.6953 13.9623 58.6939 9.96094 53.7754 9.96094H50.1309H18.8809C13.9623 9.96094 9.96094 13.9623 9.96094 18.8809V31.9861C10.9156 31.6363 11.9463 31.4453 13.0209 31.4453H19.7266C23.7035 31.4453 26.9936 34.433 27.4758 38.2812H34.7656C41.5504 38.2812 47.0703 32.7613 47.0703 25.9766V24.6094C47.0703 24.0701 47.5076 23.6328 48.0469 23.6328C48.5861 23.6328 49.0234 24.0701 49.0234 24.6094V25.9766C49.0234 33.8383 42.6273 40.2344 34.7656 40.2344H27.4758C26.9934 44.0826 23.7035 47.0703 19.7266 47.0703H14.8438C14.3045 47.0703 13.8672 46.6332 13.8672 46.0938C13.8672 45.5545 14.3045 45.1172 14.8438 45.1172H19.7266C22.9574 45.1172 25.5859 42.4887 25.5859 39.2578C25.5859 36.027 22.9574 33.3984 19.7266 33.3984H13.0209C9.17969 33.3984 6.05469 36.5234 6.05469 40.3647V48.6633C6.05469 50.5238 6.7793 52.2732 8.09512 53.5893L17.2014 62.6953H48.0469H55.2928L62.6953 49.7406V18.8809ZM33.3984 77.3438C33.3984 80.0361 35.5889 82.2266 38.2812 82.2266H54.8828V72.4609H38.2812C35.5889 72.4609 33.3984 74.6514 33.3984 77.3438Z" fill="#F63333"/>
<path d="M17.7734 64.6484V90.0391H54.8828V84.1797H38.2812C34.5119 84.1797 31.4453 81.1131 31.4453 77.3438C31.4453 73.5744 34.5119 70.5078 38.2812 70.5078H54.8828V64.6484H48.0469H17.7734ZM64.6484 77.3438C64.6484 80.0361 66.8389 82.2266 69.5312 82.2266H86.1328V72.4609H69.5312C66.8389 72.4609 64.6484 74.6514 64.6484 77.3438Z" fill="#F63333"/>
<path d="M56.8359 71.4844V83.2031V90.0391H86.1328V84.1797H69.5312C65.7619 84.1797 62.6953 81.1131 62.6953 77.3438C62.6953 73.5744 65.7619 70.5078 69.5312 70.5078H86.1328V64.6484H56.8359V71.4844ZM85.0254 9.96094H59.982C62.7998 11.9277 64.6484 15.1916 64.6484 18.8809V50C64.6484 50.1699 64.6041 50.3371 64.5197 50.4844L57.5422 62.6953H86.5428L93.9453 49.7406V18.8809C93.9453 13.9623 89.9439 9.96094 85.0254 9.96094Z" fill="#F63333"/>
</svg>
