<svg width="20" height="20" viewBox="0 0 20 20" fill="none" xmlns="http://www.w3.org/2000/svg">
<g clip-path="url(#clip0_1048_5383)">
<path d="M10 8.125C9.62916 8.125 9.26665 8.23497 8.95831 8.44099C8.64996 8.64702 8.40964 8.93986 8.26773 9.28247C8.12581 9.62508 8.08868 10.0021 8.16103 10.3658C8.23338 10.7295 8.41195 11.0636 8.67417 11.3258C8.9364 11.588 9.27049 11.7666 9.63421 11.839C9.99792 11.9113 10.3749 11.8742 10.7175 11.7323C11.0601 11.5904 11.353 11.35 11.559 11.0417C11.765 10.7334 11.875 10.3708 11.875 10C11.8745 9.50288 11.6768 9.02626 11.3253 8.67475C10.9737 8.32323 10.4971 8.12552 10 8.125ZM10 11.25C9.75277 11.25 9.5111 11.1767 9.30554 11.0393C9.09998 10.902 8.93976 10.7068 8.84515 10.4784C8.75054 10.2499 8.72579 9.99861 8.77402 9.75614C8.82225 9.51366 8.9413 9.29093 9.11612 9.11612C9.29093 8.9413 9.51366 8.82225 9.75614 8.77402C9.99861 8.72579 10.2499 8.75054 10.4784 8.84515C10.7068 8.93976 10.902 9.09998 11.0393 9.30554C11.1767 9.5111 11.25 9.75277 11.25 10C11.25 10.3315 11.1183 10.6495 10.8839 10.8839C10.6495 11.1183 10.3315 11.25 10 11.25ZM11.875 5.9375H8.125C7.54503 5.93812 6.98899 6.16879 6.57889 6.57889C6.16879 6.98899 5.93812 7.54503 5.9375 8.125V11.875C5.93812 12.455 6.16879 13.011 6.57889 13.4211C6.98899 13.8312 7.54503 14.0619 8.125 14.0625H11.875C12.455 14.0619 13.011 13.8312 13.4211 13.4211C13.8312 13.011 14.0619 12.455 14.0625 11.875V8.125C14.0619 7.54503 13.8312 6.98899 13.4211 6.57889C13.011 6.16879 12.455 5.93812 11.875 5.9375ZM13.4375 11.875C13.4375 12.2894 13.2729 12.6868 12.9799 12.9799C12.6868 13.2729 12.2894 13.4375 11.875 13.4375H8.125C7.7106 13.4375 7.31317 13.2729 7.02015 12.9799C6.72712 12.6868 6.5625 12.2894 6.5625 11.875V8.125C6.5625 7.7106 6.72712 7.31317 7.02015 7.02015C7.31317 6.72712 7.7106 6.5625 8.125 6.5625H11.875C12.2894 6.5625 12.6868 6.72712 12.9799 7.02015C13.2729 7.31317 13.4375 7.7106 13.4375 8.125V11.875ZM12.5 7.96875C12.5 8.06146 12.4725 8.15209 12.421 8.22917C12.3695 8.30626 12.2963 8.36634 12.2106 8.40182C12.125 8.4373 12.0307 8.44658 11.9398 8.42849C11.8489 8.41041 11.7653 8.36576 11.6998 8.30021C11.6342 8.23465 11.5896 8.15113 11.5715 8.0602C11.5534 7.96927 11.5627 7.87502 11.5982 7.78937C11.6337 7.70371 11.6937 7.63051 11.7708 7.579C11.8479 7.52749 11.9385 7.5 12.0312 7.5C12.1556 7.5 12.2748 7.54939 12.3627 7.63729C12.4506 7.7252 12.5 7.84443 12.5 7.96875Z" fill="#F63333"/>
</g>
<circle cx="10" cy="10" r="9.75" stroke="#F63333" stroke-width="0.5"/>
<circle cx="10" cy="10" r="9.75" stroke="#F63333" stroke-width="0.5"/>
<circle cx="10" cy="10" r="9.75" stroke="#F63333" stroke-width="0.5"/>
<defs>
<clipPath id="clip0_1048_5383">
<rect width="10" height="10" fill="white" transform="translate(5 5)"/>
</clipPath>
</defs>
</svg>
