<svg width="185" height="62" viewBox="0 0 185 62" fill="none" xmlns="http://www.w3.org/2000/svg">
<path d="M5.63306 51.6943H2.62173L2.60549 50.2089H5.23534C5.67906 50.2089 6.05513 50.144 6.36357 50.0141C6.67742 49.8788 6.91552 49.6867 7.07785 49.4378C7.24019 49.1835 7.32136 48.8778 7.32136 48.5206C7.32136 48.1256 7.2456 47.8036 7.09409 47.5547C6.94257 47.3058 6.70989 47.1245 6.39604 47.0109C6.0876 46.8973 5.69258 46.8405 5.21099 46.8405H3.2386V57.0352H1.20129V45.2171H5.21099C5.86033 45.2171 6.43933 45.2793 6.94798 45.4038C7.46205 45.5282 7.89765 45.723 8.25479 45.9882C8.61734 46.2479 8.8906 46.578 9.07458 46.9784C9.26398 47.3789 9.35867 47.8551 9.35867 48.407C9.35867 48.894 9.24233 49.3404 9.00965 49.7463C8.77697 50.1467 8.43336 50.4741 7.97882 50.7284C7.52428 50.9827 6.95881 51.1342 6.2824 51.1829L5.63306 51.6943ZM5.54378 57.0352H1.9805L2.8977 55.4199H5.54378C6.00373 55.4199 6.38792 55.3442 6.69636 55.1926C7.0048 55.0357 7.23478 54.822 7.38629 54.5514C7.54321 54.2754 7.62168 53.9535 7.62168 53.5855C7.62168 53.2013 7.55404 52.8685 7.41876 52.5871C7.28348 52.3004 7.06973 52.0812 6.77753 51.9297C6.48532 51.7728 6.10384 51.6943 5.63306 51.6943H3.34412L3.36036 50.2089H6.33922L6.80188 50.769C7.45122 50.7906 7.98423 50.934 8.40089 51.1992C8.82296 51.4643 9.13681 51.8079 9.34244 52.23C9.54806 52.6521 9.65088 53.1066 9.65088 53.5936C9.65088 54.3458 9.48584 54.9762 9.15575 55.4848C8.83108 55.9935 8.36301 56.3804 7.75155 56.6455C7.14008 56.9053 6.40416 57.0352 5.54378 57.0352ZM23.7878 50.8015V51.4508C23.7878 52.3436 23.6714 53.1445 23.4387 53.8534C23.206 54.5622 22.8733 55.1656 22.4404 55.6634C22.0129 56.1612 21.4988 56.5427 20.8982 56.8079C20.2975 57.0676 19.6319 57.1975 18.9014 57.1975C18.1763 57.1975 17.5135 57.0676 16.9128 56.8079C16.3176 56.5427 15.8008 56.1612 15.3625 55.6634C14.9242 55.1656 14.5833 54.5622 14.3398 53.8534C14.1017 53.1445 13.9827 52.3436 13.9827 51.4508V50.8015C13.9827 49.9086 14.1017 49.1105 14.3398 48.407C14.5779 47.6981 14.9134 47.0948 15.3463 46.5969C15.7846 46.0937 16.3014 45.7122 16.8966 45.4525C17.4972 45.1873 18.1601 45.0548 18.8852 45.0548C19.6157 45.0548 20.2813 45.1873 20.8819 45.4525C21.4826 45.7122 21.9993 46.0937 22.4322 46.5969C22.8651 47.0948 23.1979 47.6981 23.4306 48.407C23.6687 49.1105 23.7878 49.9086 23.7878 50.8015ZM21.7504 51.4508V50.7852C21.7504 50.1251 21.6855 49.5433 21.5556 49.0401C21.4312 48.5315 21.2445 48.1067 20.9956 47.7658C20.7521 47.4195 20.4517 47.1597 20.0946 46.9866C19.7375 46.808 19.3343 46.7187 18.8852 46.7187C18.4361 46.7187 18.0356 46.808 17.6839 46.9866C17.3322 47.1597 17.0319 47.4195 16.7829 47.7658C16.5394 48.1067 16.3528 48.5315 16.2229 49.0401C16.093 49.5433 16.0281 50.1251 16.0281 50.7852V51.4508C16.0281 52.111 16.093 52.6954 16.2229 53.204C16.3528 53.7127 16.5422 54.1429 16.7911 54.4946C17.0454 54.8409 17.3484 55.1034 17.7001 55.2819C18.0519 55.4551 18.4523 55.5417 18.9014 55.5417C19.356 55.5417 19.7591 55.4551 20.1108 55.2819C20.4626 55.1034 20.7602 54.8409 21.0037 54.4946C21.2472 54.1429 21.4312 53.7127 21.5556 53.204C21.6855 52.6954 21.7504 52.111 21.7504 51.4508ZM29.8565 45.2171L32.3646 49.5271L34.8727 45.2171H37.2185L33.6471 51.0693L37.3077 57.0352H34.9376L32.3646 52.644L29.7916 57.0352H27.4134L31.0822 51.0693L27.5026 45.2171H29.8565ZM43.6444 45.2171V57.0352H41.6071V45.2171H43.6444ZM58.2114 45.2171V57.0352H56.1741L50.8738 48.5693V57.0352H48.8365V45.2171H50.8738L56.1903 53.6992V45.2171H58.2114ZM72.3727 50.9963V55.5092C72.2049 55.7311 71.9425 55.9746 71.5853 56.2397C71.2336 56.4994 70.7655 56.724 70.1811 56.9134C69.5967 57.1028 68.8689 57.1975 67.9977 57.1975C67.2564 57.1975 66.5773 57.073 65.9604 56.8241C65.3435 56.5698 64.8105 56.1991 64.3614 55.7121C63.9177 55.2251 63.574 54.6326 63.3305 53.9345C63.087 53.2311 62.9653 52.4302 62.9653 51.532V50.7122C62.9653 49.8193 63.0762 49.0239 63.2981 48.3258C63.5253 47.6224 63.85 47.0271 64.2721 46.5401C64.6942 46.0531 65.2028 45.6852 65.798 45.4362C66.3987 45.1819 67.0778 45.0548 67.8354 45.0548C68.804 45.0548 69.6048 45.2171 70.2379 45.5418C70.8765 45.861 71.3689 46.3047 71.7152 46.8729C72.0615 47.4411 72.2807 48.0904 72.3727 48.821H70.3759C70.311 48.4097 70.1838 48.0417 69.9944 47.7171C69.8105 47.3924 69.5453 47.1381 69.199 46.9541C68.8581 46.7647 68.4144 46.67 67.8678 46.67C67.3971 46.67 66.9831 46.7593 66.626 46.9379C66.2688 47.1164 65.9712 47.3789 65.7331 47.7252C65.5004 48.0715 65.3246 48.4936 65.2055 48.9914C65.0865 49.4892 65.0269 50.0574 65.0269 50.6959V51.532C65.0269 52.1813 65.0946 52.7576 65.2299 53.2608C65.3706 53.7641 65.5708 54.1889 65.8305 54.5352C66.0957 54.8815 66.4176 55.1439 66.7964 55.3225C67.1752 55.4957 67.6027 55.5822 68.0789 55.5822C68.5442 55.5822 68.9257 55.5444 69.2233 55.4686C69.521 55.3874 69.7563 55.2927 69.9295 55.1845C70.1081 55.0709 70.2461 54.9627 70.3435 54.8599V52.5141H67.8841V50.9963H72.3727ZM85.9144 50.6066L87.9517 49.2349C88.2926 49.0076 88.5361 48.7858 88.6822 48.5693C88.8283 48.3475 88.9014 48.0715 88.9014 47.7414C88.9014 47.46 88.7932 47.2003 88.5767 46.9622C88.3603 46.7241 88.0545 46.6051 87.6595 46.6051C87.3835 46.6051 87.1509 46.67 86.9615 46.7999C86.7721 46.9243 86.6287 47.0921 86.5313 47.3031C86.4393 47.5087 86.3933 47.7387 86.3933 47.993C86.3933 48.2365 86.4555 48.4882 86.58 48.7479C86.7044 49.0022 86.8749 49.2701 87.0913 49.5515C87.3078 49.8274 87.5513 50.1251 87.8218 50.4443L93.4062 57.0352H91.1416L86.58 51.6699C86.185 51.1938 85.8359 50.7582 85.5329 50.3631C85.2299 49.9627 84.9945 49.5758 84.8267 49.2024C84.659 48.8237 84.5751 48.4341 84.5751 48.0336C84.5751 47.4167 84.7023 46.8864 84.9566 46.4427C85.2109 45.999 85.5708 45.6581 86.0362 45.42C86.5015 45.1765 87.0453 45.0548 87.6676 45.0548C88.2683 45.0548 88.785 45.1765 89.2179 45.42C89.6562 45.6581 89.9917 45.9747 90.2244 46.3697C90.4625 46.7647 90.5816 47.1976 90.5816 47.6684C90.5816 48.0417 90.5139 48.3826 90.3786 48.6911C90.2434 48.9995 90.0567 49.2809 89.8186 49.5352C89.5805 49.7896 89.3045 50.0304 88.9907 50.2576L86.515 52.0596C86.2283 52.2922 86.0145 52.5168 85.8738 52.7333C85.7385 52.9443 85.6493 53.1391 85.606 53.3177C85.5627 53.4962 85.541 53.6532 85.541 53.7884C85.541 54.1348 85.6141 54.4486 85.7602 54.73C85.9117 55.0114 86.1308 55.2359 86.4176 55.4037C86.7098 55.566 87.0643 55.6472 87.4809 55.6472C87.9301 55.6472 88.3657 55.5471 88.7877 55.3469C89.2098 55.1412 89.5886 54.8517 89.9241 54.4784C90.2596 54.105 90.5247 53.6586 90.7195 53.1391C90.9198 52.6196 91.0199 52.0433 91.0199 51.4102H92.7082C92.7082 51.9838 92.6513 52.5276 92.5377 53.0417C92.4295 53.5558 92.2536 54.0319 92.0101 54.4702C91.772 54.9086 91.4582 55.3009 91.0686 55.6472C91.0307 55.6851 90.9874 55.7338 90.9387 55.7933C90.8954 55.8474 90.8521 55.8934 90.8088 55.9313C90.3435 56.3588 89.8213 56.678 89.2423 56.8891C88.6687 57.0947 88.0572 57.1975 87.4079 57.1975C86.6233 57.1975 85.9442 57.0541 85.3706 56.7673C84.797 56.4805 84.3533 56.0855 84.0394 55.5822C83.731 55.079 83.5768 54.5027 83.5768 53.8534C83.5768 53.3718 83.6769 52.9497 83.8771 52.5871C84.0773 52.2192 84.3506 51.8783 84.6969 51.5644C85.0486 51.2452 85.4544 50.9259 85.9144 50.6066ZM106.25 45.2171V57.0352H104.213V45.2171H106.25ZM111.071 50.3875V52.0027H105.73V50.3875H111.071ZM111.745 45.2171V46.8405H105.73V45.2171H111.745ZM118.203 45.2171V57.0352H116.166V45.2171H118.203ZM128.014 45.2171V57.0352H125.993V45.2171H128.014ZM131.723 45.2171V46.8405H122.316V45.2171H131.723ZM145.316 45.2171V57.0352H143.279L137.979 48.5693V57.0352H135.942V45.2171H137.979L143.295 53.6992V45.2171H145.316ZM158.138 55.4199V57.0352H151.864V55.4199H158.138ZM152.44 45.2171V57.0352H150.403V45.2171H152.44ZM157.319 50.1521V51.743H151.864V50.1521H157.319ZM158.098 45.2171V46.8405H151.864V45.2171H158.098ZM168.679 53.9914C168.679 53.7479 168.642 53.5314 168.566 53.342C168.496 53.1526 168.368 52.9795 168.184 52.8225C168 52.6656 167.741 52.5141 167.405 52.368C167.075 52.2165 166.653 52.0623 166.139 51.9053C165.576 51.7322 165.057 51.5401 164.58 51.329C164.11 51.1126 163.698 50.8637 163.347 50.5823C162.995 50.2955 162.722 49.9681 162.527 49.6002C162.332 49.2268 162.235 48.7966 162.235 48.3096C162.235 47.828 162.335 47.3897 162.535 46.9947C162.741 46.5997 163.03 46.2587 163.404 45.972C163.782 45.6797 164.229 45.4552 164.743 45.2983C165.257 45.1359 165.825 45.0548 166.447 45.0548C167.324 45.0548 168.079 45.2171 168.712 45.5418C169.35 45.8664 169.84 46.302 170.181 46.8486C170.527 47.3951 170.701 47.9984 170.701 48.6586H168.679C168.679 48.269 168.596 47.9254 168.428 47.6278C168.266 47.3248 168.017 47.0867 167.681 46.9135C167.351 46.7403 166.932 46.6538 166.423 46.6538C165.941 46.6538 165.541 46.7268 165.222 46.8729C164.902 47.019 164.664 47.2165 164.507 47.4654C164.351 47.7144 164.272 47.9957 164.272 48.3096C164.272 48.5315 164.323 48.7344 164.426 48.9184C164.529 49.0969 164.686 49.2647 164.897 49.4216C165.108 49.5731 165.373 49.7165 165.693 49.8518C166.012 49.9871 166.388 50.1169 166.821 50.2414C167.475 50.4362 168.046 50.6526 168.533 50.8907C169.02 51.1234 169.426 51.3886 169.751 51.6862C170.076 51.9838 170.319 52.322 170.481 52.7008C170.644 53.0742 170.725 53.4989 170.725 53.9751C170.725 54.473 170.625 54.9221 170.425 55.3225C170.224 55.7175 169.938 56.0557 169.564 56.3371C169.196 56.6131 168.753 56.8268 168.233 56.9783C167.719 57.1244 167.145 57.1975 166.512 57.1975C165.944 57.1975 165.384 57.1217 164.832 56.9702C164.286 56.8187 163.788 56.5887 163.339 56.2803C162.889 55.9664 162.532 55.5768 162.267 55.1115C162.002 54.6407 161.869 54.0915 161.869 53.4638H163.907C163.907 53.848 163.972 54.1753 164.102 54.4459C164.237 54.7165 164.424 54.9383 164.662 55.1115C164.9 55.2792 165.176 55.4037 165.49 55.4848C165.809 55.566 166.15 55.6066 166.512 55.6066C166.988 55.6066 167.386 55.539 167.705 55.4037C168.03 55.2684 168.274 55.079 168.436 54.8355C168.598 54.592 168.679 54.3106 168.679 53.9914ZM181.404 53.9914C181.404 53.7479 181.366 53.5314 181.29 53.342C181.22 53.1526 181.093 52.9795 180.909 52.8225C180.725 52.6656 180.465 52.5141 180.13 52.368C179.8 52.2165 179.378 52.0623 178.863 51.9053C178.301 51.7322 177.781 51.5401 177.305 51.329C176.834 51.1126 176.423 50.8637 176.071 50.5823C175.72 50.2955 175.446 49.9681 175.251 49.6002C175.057 49.2268 174.959 48.7966 174.959 48.3096C174.959 47.828 175.059 47.3897 175.26 46.9947C175.465 46.5997 175.755 46.2587 176.128 45.972C176.507 45.6797 176.953 45.4552 177.467 45.2983C177.981 45.1359 178.55 45.0548 179.172 45.0548C180.049 45.0548 180.803 45.2171 181.436 45.5418C182.075 45.8664 182.565 46.302 182.906 46.8486C183.252 47.3951 183.425 47.9984 183.425 48.6586H181.404C181.404 48.269 181.32 47.9254 181.152 47.6278C180.99 47.3248 180.741 47.0867 180.406 46.9135C180.076 46.7403 179.656 46.6538 179.148 46.6538C178.666 46.6538 178.266 46.7268 177.946 46.8729C177.627 47.019 177.389 47.2165 177.232 47.4654C177.075 47.7144 176.997 47.9957 176.997 48.3096C176.997 48.5315 177.048 48.7344 177.151 48.9184C177.254 49.0969 177.411 49.2647 177.622 49.4216C177.833 49.5731 178.098 49.7165 178.417 49.8518C178.736 49.9871 179.112 50.1169 179.545 50.2414C180.2 50.4362 180.771 50.6526 181.258 50.8907C181.745 51.1234 182.151 51.3886 182.475 51.6862C182.8 51.9838 183.044 52.322 183.206 52.7008C183.368 53.0742 183.449 53.4989 183.449 53.9751C183.449 54.473 183.349 54.9221 183.149 55.3225C182.949 55.7175 182.662 56.0557 182.289 56.3371C181.921 56.6131 181.477 56.8268 180.958 56.9783C180.444 57.1244 179.87 57.1975 179.237 57.1975C178.669 57.1975 178.109 57.1217 177.557 56.9702C177.01 56.8187 176.512 56.5887 176.063 56.2803C175.614 55.9664 175.257 55.5768 174.992 55.1115C174.727 54.6407 174.594 54.0915 174.594 53.4638H176.631C176.631 53.848 176.696 54.1753 176.826 54.4459C176.961 54.7165 177.148 54.9383 177.386 55.1115C177.624 55.2792 177.9 55.4037 178.214 55.4848C178.533 55.566 178.874 55.6066 179.237 55.6066C179.713 55.6066 180.111 55.539 180.43 55.4037C180.755 55.2684 180.998 55.079 181.161 54.8355C181.323 54.592 181.404 54.3106 181.404 53.9914Z" fill="white"/>
<g clip-path="url(#clip0_256_298)">
<path d="M153.198 0.611328L156.528 1.2713L163.855 8.53094V9.19091L156.528 9.85088L155.862 12.4907L156.528 13.1507L174.513 13.8107L178.509 16.4506L181.174 19.7504L181.84 21.0703V28.33L178.509 33.6097L172.515 36.2496H145.871V27.01L171.848 26.3501L172.515 23.7102L171.848 23.0502L153.198 22.3903L148.535 19.0904L145.871 13.8107V9.19091L148.535 3.91117L153.198 0.611328Z" fill="#BAC3C7"/>
<path d="M7.33084 0.61084L10.6613 1.27081L17.9882 8.53045V9.19042L10.6613 9.85039L9.99518 12.4903L10.6613 13.1502L28.6456 13.8102L33.3082 16.4501L35.9725 20.4099L36.6386 26.3496L34.6403 30.9694L31.3099 34.2692L29.3116 35.5891H0.669991V27.0096L25.9812 26.3496L26.6473 23.7097L25.9812 23.0497L7.99693 22.3898L3.33433 19.7499L0.669991 15.1301L0.00390625 13.8102V9.19042L2.66825 3.91068L5.99867 1.27081L7.33084 0.61084Z" fill="#B6BFC4"/>
<path d="M57.2915 -0.0488281L60.6219 3.25101L67.9489 15.7904L75.9419 28.3298L79.9384 34.9295V36.2494H69.281L63.2863 26.3499L60.6219 21.7301L52.6289 9.19072L53.295 6.55085L57.2915 -0.0488281Z" fill="#A7B0B7"/>
<path d="M99.2539 5.89062L101.918 7.21056L107.247 12.4903V13.8102H120.569V22.3898H107.913V35.5892H99.2539V5.89062Z" fill="#A2ACB3"/>
<path d="M99.2539 -0.0488281H130.56V9.19072L107.247 9.85069L99.2539 1.93108V-0.0488281Z" fill="#A0AAB1"/>
<path d="M50.6226 11.1704L53.287 13.8103L55.9513 17.7701L55.2852 21.7299L49.9565 30.3095L46.6261 35.5892H35.9688L37.3009 32.2894L45.2939 19.09L50.6226 11.1704Z" fill="#C4CCD2"/>
<path d="M145.871 27.0098H170.516L166.52 31.6295L163.855 34.9294L172.514 35.5893V36.2493H145.871V27.0098Z" fill="#7C888F"/>
<path d="M85.2656 9.19043L89.9282 13.1502L93.9247 17.11V35.5891H85.2656V9.19043Z" fill="#CBD1D3"/>
<path d="M177.183 16.4502L179.847 17.7701L181.846 21.07V28.3296L178.515 33.6094L174.519 35.5893H163.195L165.86 31.6295L170.522 27.0097L172.521 25.6897L171.854 22.3899L176.517 17.1102L177.183 16.4502Z" fill="#D0DCDD"/>
<path d="M13.3242 -0.0488281H36.6372V9.19072H21.9833L14.6564 1.93108L13.3242 1.27111V-0.0488281Z" fill="#838E95"/>
<path d="M159.199 -0.0488281H181.846V9.19072H167.192L163.862 5.89088L159.199 1.27111V-0.0488281Z" fill="#96A1A7"/>
<path d="M7.33084 0.61084L10.6613 1.27081L17.9882 8.53045V9.19042L10.6613 9.85039L7.99693 15.1301L4.6665 19.0899L1.33608 17.11L0.00390625 13.8102V9.19042L2.66825 3.91068L5.99867 1.27081L7.33084 0.61084Z" fill="#CCD8D8"/>
<path d="M57.2915 -0.0488281L60.6219 3.25101L65.9506 11.8306L65.2845 14.4705L60.6219 19.0902L57.9576 17.7703L52.6289 9.19072L53.295 6.55085L57.2915 -0.0488281Z" fill="#B1BBC2"/>
<path d="M84.5898 -0.0488281H93.915V13.1505L89.2524 9.19072L84.5898 4.57095V-0.0488281Z" fill="#A0AAB3"/>
<path d="M9.32882 12.4907L10.661 13.1507L17.9879 13.8107L13.9914 18.4304L9.9949 22.3902L5.99839 21.7303L2.66797 18.4304L5.33231 17.7705L9.32882 12.4907Z" fill="#909EA4"/>
<path d="M57.2915 -0.0488281L60.6219 3.25101L61.288 7.21082L55.9593 12.4906L52.6289 9.19072L53.295 6.55085L57.2915 -0.0488281Z" fill="#E8EEEE"/>
<path d="M107.247 25.0303H107.913V35.5898H99.2539L99.92 32.2899L107.247 25.0303Z" fill="#8F9BA7"/>
<path d="M163.862 27.0098H170.523L166.526 31.6295L163.196 35.5893H157.867L159.199 32.9495L163.862 27.0098Z" fill="#B1BEC1"/>
<path d="M137.215 0.611328H142.544L140.546 7.21101L137.881 12.4907L134.551 13.1507L135.883 7.21101L137.215 0.611328Z" fill="#C0C8CC"/>
<path d="M173.186 13.8105L177.183 15.1305V17.1104L172.52 22.3901H167.191L168.524 19.7503L172.52 15.1305L173.186 13.8105Z" fill="#828F97"/>
<path d="M93.2584 1.27148H93.9245V13.1509L89.2619 9.1911L87.9297 6.55123L93.2584 1.27148Z" fill="#B5BDC2"/>
<path d="M13.9883 0.611328H25.3117L21.3152 5.2311L18.6509 5.89107L13.9883 1.2713V0.611328Z" fill="#98A6AC"/>
<path d="M119.897 13.8105H120.563V22.3901H112.57L116.567 17.7704L119.897 13.8105Z" fill="#9AA6AF"/>
<path d="M61.2877 5.89062L63.286 7.87053L62.6199 11.1704L57.9573 15.7901L55.293 13.1503L59.2895 8.5305L61.2877 5.89062Z" fill="#CBD3D8"/>
<path d="M14.0008 13.8105H17.9973L14.0008 18.4303L10.0043 22.3901L6.00781 21.7302L9.33824 18.4303L14.0008 13.8105Z" fill="#77848E"/>
<path d="M65.9382 13.1504L67.9365 15.7903L63.9399 20.41L61.2756 23.0499L59.2773 19.0901L64.606 14.4703L65.9382 13.1504Z" fill="#909DA8"/>
<path d="M177.196 16.4502L179.86 17.7701L180.526 19.0901L177.196 21.7299H175.864L174.532 24.3698L173.199 25.0298L171.867 22.3899L176.53 17.1102L177.196 16.4502Z" fill="#C1CDCF"/>
<path d="M50.6315 11.1709L52.6297 12.4908L51.9637 15.1307L45.3028 21.7304L44.6367 20.4104L50.6315 11.1709Z" fill="#DBE2E4"/>
<path d="M146.555 27.0098H153.216L149.219 31.6295L146.555 33.6094V27.0098Z" fill="#9DA8AF"/>
<path d="M107.247 25.0303L107.913 27.6701L99.92 35.5898L99.2539 32.9499L107.247 25.0303Z" fill="#84929E"/>
<path d="M59.9362 4.57129H61.2683L60.6023 7.87113L55.9397 12.4909L53.9414 11.171V9.85103L59.2701 5.23126L59.9362 4.57129Z" fill="#DAE1E4"/>
<path d="M163.862 27.0098L166.526 27.6697L159.865 35.5893H157.867L159.199 32.9495L163.862 27.0098Z" fill="#96A4AA"/>
<path d="M49.9558 27.6699L51.288 28.3299L46.6254 35.5895H42.6289L46.6254 30.9698L49.9558 27.6699Z" fill="#A5B0B8"/>
<path d="M85.2656 9.19043L89.9282 13.1502L86.5978 16.4501L85.2656 17.11V9.19043Z" fill="#C8CED1"/>
<path d="M137.217 0.611328H142.546L141.879 3.91117H139.881L136.551 6.55104L137.217 0.611328Z" fill="#AFB8BE"/>
<path d="M84.5898 -0.0488281H93.915V0.61114L89.2524 1.27111L85.922 5.23092L84.5898 4.57095V-0.0488281Z" fill="#717A82"/>
<path d="M175.178 15.7905L177.843 16.4505L173.18 21.0703L172.514 22.3902H169.184L172.514 17.7704L175.178 15.7905Z" fill="#9AA7AD"/>
<path d="M25.3229 0.611328L27.9872 1.2713L21.3264 7.87097L19.3281 5.89107L24.6568 1.2713L25.3229 0.611328Z" fill="#7E8B94"/>
<path d="M62.6218 7.87109L63.2879 10.511L57.9592 15.7907L55.9609 13.8108L61.2896 9.19103L62.6218 7.87109Z" fill="#BEC7CD"/>
<path d="M119.897 13.8105H120.563V19.0903L119.231 17.7704L114.569 22.3901L112.57 21.7302L119.231 15.1305L119.897 13.8105Z" fill="#8B97A3"/>
<path d="M13.9883 0.611328H21.3152L18.6509 4.57113L15.9865 3.2512L13.9883 0.611328Z" fill="#B4C2C4"/>
<path d="M93.2563 30.3096H93.9224V35.5893H88.5938L92.5903 30.9695L93.2563 30.3096Z" fill="#9FA9B1"/>
<path d="M107.237 30.3096H107.903V35.5893H102.574L106.571 30.9695L107.237 30.3096Z" fill="#9FAAB4"/>
<path d="M8.65304 10.5107L9.31912 13.1506L4.65653 19.0903L1.99219 17.7704L5.32261 15.1305L7.32087 13.1506L8.65304 10.5107Z" fill="#BBC7CA"/>
<path d="M9.33824 12.4907L11.3365 14.4706L6.6739 19.0904L6.00781 16.4505L9.33824 12.4907Z" fill="#A3B0B5"/>
<path d="M65.2859 11.8306L65.9519 13.8105L60.6233 19.0902L58.625 18.4302L61.9554 15.1304L65.2859 11.8306Z" fill="#9FAAB4"/>
<path d="M63.9518 11.1709H65.284L63.9518 13.8108L59.9553 17.7706H57.957V16.4506L63.2857 11.8309L63.9518 11.1709Z" fill="#AAB4BC"/>
<path d="M146.555 27.0098H150.549L149.218 29.6482L146.555 31.627V27.0098Z" fill="#A9B3B9"/>
<path d="M177.196 16.4502L178.528 17.1102L173.199 23.7098L171.867 22.3899L176.53 17.1102L177.196 16.4502Z" fill="#AEBBBF"/>
<path d="M85.2656 9.19043L88.5961 12.4903L85.2656 14.4702V9.19043Z" fill="#B8BFC3"/>
<path d="M35.2974 5.23096H35.9631V9.18861H31.9688L35.2974 5.23096Z" fill="#AEB8BD"/>
<path d="M88.5961 13.8105H89.9282L88.5961 16.4504L85.2656 19.0903L85.9317 16.4504L88.5961 13.8105Z" fill="#D2D8D9"/>
<path d="M14.6584 6.55078L17.3228 7.87072L17.9888 9.19065H12.6602L14.6584 6.55078Z" fill="#A2B0B5"/>
<path d="M93.2561 7.87109H93.9222V13.1508L91.2578 11.1709L92.59 8.53106L93.2561 7.87109Z" fill="#CAD0D1"/>
<path d="M159.864 29.6499V31.6298L156.534 35.5896L154.535 34.9296L159.864 29.6499Z" fill="#7F8D96"/>
<path d="M50.6331 11.1709L51.9653 11.8309L50.6331 14.4707L47.9688 16.4506L49.3009 13.1508L50.6331 11.1709Z" fill="#E5EBEC"/>
<path d="M13.9883 0.611328H18.6483L17.3169 3.24977L14.654 1.93055L13.9883 0.611328Z" fill="#CDD9D9"/>
</g>
<defs>
<clipPath id="clip0_256_298">
<rect width="181.824" height="35.5122" fill="white"/>
</clipPath>
</defs>
</svg>
