<svg width="14" height="18" viewBox="0 0 14 18" fill="none" xmlns="http://www.w3.org/2000/svg">
<path d="M1.6425 5.57245C1.40375 3.99995 2.5125 2.58745 4.20625 2.06995C4.50682 1.97805 4.83112 2.00421 5.11308 2.1431C5.39503 2.28199 5.61342 2.52315 5.72375 2.81745L6.2675 4.26745C6.35504 4.50072 6.37087 4.75482 6.31296 4.99715C6.25505 5.23947 6.12604 5.45896 5.9425 5.62745L4.325 7.1087C4.24527 7.18187 4.18586 7.27444 4.15257 7.37741C4.11927 7.48037 4.11322 7.5902 4.135 7.6962L4.15 7.7612L4.18875 7.9237C4.38991 8.71326 4.69641 9.47215 5.1 10.18C5.53964 10.9321 6.08524 11.617 6.72 12.2137L6.77 12.2587C6.85076 12.3304 6.9487 12.3799 7.05429 12.4025C7.15988 12.425 7.26951 12.4199 7.3725 12.3875L9.46375 11.7287C9.70142 11.6541 9.95596 11.6522 10.1947 11.7232C10.4335 11.7943 10.6456 11.935 10.8038 12.1275L11.7938 13.3287C12.2063 13.8287 12.1563 14.5637 11.6825 15.005C10.3863 16.2137 8.60375 16.4612 7.36375 15.465C5.84379 14.2389 4.56245 12.7436 3.58375 11.0537C2.59712 9.36512 1.93933 7.50549 1.6425 5.57245ZM5.44625 7.7787L6.78625 6.5487C7.15355 6.21187 7.41179 5.77295 7.52784 5.28829C7.64388 4.80363 7.61242 4.29535 7.4375 3.8287L6.895 2.3787C6.67293 1.78651 6.23342 1.30128 5.66602 1.02187C5.09863 0.742472 4.44604 0.689929 3.84125 0.874951C1.7375 1.5187 0.0487536 3.40495 0.406254 5.7612C0.656254 7.4062 1.2325 9.4987 2.50375 11.6837C3.55964 13.5058 4.94183 15.1181 6.58125 16.4399C8.44125 17.9337 10.9238 17.4237 12.5363 15.9212C12.9976 15.4916 13.2777 14.9021 13.3193 14.2731C13.3609 13.644 13.1608 13.0228 12.76 12.5362L11.77 11.3337C11.4533 10.9493 11.029 10.6683 10.5515 10.5266C10.074 10.385 9.56509 10.3892 9.09 10.5387L7.35375 11.085C6.90547 10.6227 6.5128 10.1097 6.18375 9.5562C5.86591 8.99665 5.61821 8.40007 5.44625 7.77995V7.7787Z" fill="#F63333"/>
</svg>
