<svg width="50" height="50" viewBox="0 0 50 50" fill="none" xmlns="http://www.w3.org/2000/svg">
<path d="M24.9999 50C29.9444 50 34.7778 48.5338 38.889 45.7868C43.0002 43.0398 46.2045 39.1353 48.0967 34.5672C49.9889 29.9991 50.484 24.9725 49.5194 20.123C48.5548 15.2735 46.1738 10.8189 42.6775 7.32264C39.1813 3.82634 34.7267 1.44531 29.8773 0.480654C25.0278 -0.484002 20.0012 0.0110393 15.433 1.90318C10.8649 3.79532 6.96042 6.99957 4.21337 11.1107C1.46632 15.2219 5.45353e-05 20.0553 0 24.9998C0.000219372 31.6302 2.63419 37.9889 7.32252 42.6773C12.0108 47.3656 18.3695 49.9997 24.9999 50ZM24.9999 12.4999L37.5001 24.9998H28.1251V37.5H21.8749V24.9998H12.4999L24.9999 12.4999Z" fill="#F63333"/>
</svg>
