<svg width="20" height="20" viewBox="0 0 20 20" fill="none" xmlns="http://www.w3.org/2000/svg">
<path d="M10 2.5C5.5 2.5 1.875 6.125 1.875 10.625C1.875 15.125 5.5 18.75 10 18.75C14.5 18.75 18.125 15.125 18.125 10.625C18.125 6.125 14.5 2.5 10 2.5ZM10 17.5625C6.1875 17.5625 3.0625 14.4375 3.0625 10.625C3.0625 6.8125 6.1875 3.6875 10 3.6875C13.8125 3.6875 16.9375 6.8125 16.9375 10.625C16.9375 14.4375 13.8125 17.5625 10 17.5625ZM2.3125 4.8125L4.8125 2.3125C5.0625 2.0625 5.0625 1.6875 4.8125 1.4375C4.5625 1.1875 4.1875 1.1875 3.9375 1.4375L1.4375 3.9375C1.1875 4.1875 1.1875 4.5625 1.4375 4.8125C1.5625 4.9375 1.6875 5 1.875 5C2.0625 5 2.1875 4.9375 2.3125 4.8125ZM18.5625 3.9375L16.0625 1.4375C15.8125 1.1875 15.4375 1.1875 15.1875 1.4375C14.9375 1.6875 14.9375 2.0625 15.1875 2.3125L17.6875 4.8125C17.8125 4.9375 17.9375 5 18.125 5C18.3125 5 18.4375 4.9375 18.5625 4.8125C18.8125 4.5625 18.8125 4.1875 18.5625 3.9375Z" fill="white"/>
<path d="M14.9375 11.25H14.875C14.5625 11.1875 14.3125 10.9375 14.3125 10.625C14.3125 10.3125 14.5625 10.0625 14.875 10H15.625C15.3125 7.375 13.25 5.3125 10.625 5V5.75C10.5625 6.0625 10.3125 6.3125 10 6.3125C9.6875 6.3125 9.4375 6.0625 9.375 5.75V5C6.75 5.3125 4.6875 7.375 4.375 10H5.125C5.4375 10.0625 5.6875 10.3125 5.6875 10.625C5.6875 10.9375 5.4375 11.1875 5.125 11.25H4.375C4.6875 13.875 6.75 15.9375 9.375 16.25V15.5C9.4375 15.1875 9.6875 14.9375 10 14.9375C10.3125 14.9375 10.5625 15.1875 10.625 15.5V16.25C13.25 15.9375 15.3125 13.875 15.625 11.25H14.9375C15 11.25 15 11.25 14.9375 11.25ZM12.5 11.25H10C9.6875 11.25 9.375 10.9375 9.375 10.625V7.5C9.375 7.1875 9.6875 6.875 10 6.875C10.3125 6.875 10.625 7.1875 10.625 7.5V10H12.5C12.8125 10 13.125 10.3125 13.125 10.625C13.125 10.9375 12.8125 11.25 12.5 11.25Z" fill="white"/>
</svg>
